# xmcd
#
# Track frame offsets: 
#        150
#        13735
#        25092
#        37509
#        50031
#        62931
#        75503
#        88740
#        101920
#        112803
#        123945
#        138013
#        150488
#        163401
#        175608
#        189045
#        201833
#        213505
#        228028
#        243462
#        255986
#        267715
#        279959
#        291669
#        303078
#        318200
#        328972
#
# Disc length: 4555 seconds
#
# Revision: 0
# Processed by: cddbd v1.5.2PL0 Copyright (c) Steve Scherf et al.
# Submitted via: ExactAudioCopy v1.3
#
DISCID=6e11c91b
DTITLE=Sonny Terry and Brownie McGhee - John Henry [CD 1)
DYEAR=2017
DGENRE=Blues
TTITLE0=Bye-bye baby blues
TTITLE1=Harmonica and washboard breakdown
TTITLE2=Me and my dog blues
TTITLE3=Death of Blind Boy Fuller
TTITLE4=Good-bye now
TTITLE5=Workingman's blues
TTITLE6=Back home blues
TTITLE7=It must be love
TTITLE8=Touch it up and go
TTITLE9=John Henry
TTITLE10=Knockabout blues
TTITLE11=Run away woman
TTITLE12=Shake down
TTITLE13=Big legged woman
TTITLE14=Custard pie blues
TTITLE15=Early morning blues
TTITLE16=Crow Jane blues
TTITLE17=Hot-headed woman
TTITLE18=Telephone blues
TTITLE19=Dirty mistreater, don't you know
TTITLE20=The Midnight special
TTITLE21=Rising sun
TTITLE22=Mamma blues
TTITLE23=Pick a bale of cotton
TTITLE24=A man is nothing but a fool
TTITLE25=I shall not be moved
TTITLE26=Raise a ruckus tonight
EXTD=
EXTT0=
EXTT1=
EXTT2=
EXTT3=
EXTT4=
EXTT5=
EXTT6=
EXTT7=
EXTT8=
EXTT9=
EXTT10=
EXTT11=
EXTT12=
EXTT13=
EXTT14=
EXTT15=
EXTT16=
EXTT17=
EXTT18=
EXTT19=
EXTT20=
EXTT21=
EXTT22=
EXTT23=
EXTT24=
EXTT25=
EXTT26=
PLAYORDER=
